<svg version="1.1" id="Layer_1" xmlns="http://www.w3.org/2000/svg" xmlns:xlink="http://www.w3.org/1999/xlink" x="0px" y="0px" viewBox="0 0 500 500" style="width: 161px;" xml:space="preserve" data-imageid="sun-69" imageName="Sun" class="illustrations_image">
<style type="text/css">
	.st0_sun-69{fill:#68E1FD;}
	.st1_sun-69{fill:#093F68;}
	.st2_sun-69{fill:#FFBC0E;}
	.st3_sun-69{fill:#FFFFFF;}
	.st4_sun-69{fill:#FFC9B0;}
	.st5_sun-69{fill:#AD7972;}
	.st6_sun-69{fill:#70CC40;}
</style>
<g id="sky_sun-69">
	<rect x="18.7" y="62" class="st0_sun-69 targetColor" width="462.6" height="375.3" style="fill: rgb(104, 225, 253);"/>
	<path class="st1_sun-69" d="M481.3,438.8H18.7c-0.8,0-1.5-0.7-1.5-1.5V62c0-0.8,0.7-1.5,1.5-1.5h462.6c0.8,0,1.5,0.7,1.5,1.5v375.3&#10;&#9;&#9;C482.8,438.1,482.2,438.8,481.3,438.8z M20.2,435.8h459.6V63.5H20.2V435.8z"/>
</g>
<g id="sun_sun-69">
	<circle class="st2_sun-69" cx="249.9" cy="177.7" r="59"/>
	<path class="st1_sun-69" d="M249.9,238c-33.4,0-60.4-27-60.4-60.4c0-33.4,27-60.4,60.4-60.4s60.4,27,60.4,60.4c0,0,0,0,0,0&#10;&#9;&#9;C310.3,210.9,283.3,238,249.9,238C249.9,238,249.9,238,249.9,238z M249.9,120.2c-31.7,0-57.4,25.7-57.4,57.4s25.7,57.4,57.4,57.4&#10;&#9;&#9;c31.7,0,57.4-25.7,57.4-57.4c0,0,0,0,0,0l0,0C307.3,145.9,281.6,120.2,249.9,120.2L249.9,120.2z"/>
	<path class="st1_sun-69" d="M249.9,270.9c-0.8,0-1.5-0.6-1.5-1.5c0,0,0,0,0,0v-23.2c0.1-0.8,0.8-1.4,1.7-1.3c0.7,0.1,1.2,0.6,1.3,1.3v23.2&#10;&#9;&#9;C251.3,270.2,250.7,270.9,249.9,270.9z"/>
	<path class="st1_sun-69" d="M249.9,106.6c-0.8,0-1.5-0.6-1.5-1.5c0,0,0,0,0,0V82.1c-0.1-0.8,0.4-1.6,1.2-1.7c0.8-0.1,1.6,0.4,1.7,1.2&#10;&#9;&#9;c0,0.1,0,0.2,0,0.3v23.3C251.3,106,250.7,106.6,249.9,106.6z"/>
	<path class="st1_sun-69" d="M183.6,243.5c-0.8,0-1.5-0.7-1.5-1.5c0,0,0,0,0,0c0-0.4,0.2-0.8,0.5-1l16.4-16.4c0.5-0.6,1.5-0.7,2.1-0.2&#10;&#9;&#9;s0.7,1.5,0.2,2.1l0,0l-0.2,0.2l-16.4,16.4C184.4,243.3,184,243.5,183.6,243.5z"/>
	<path class="st1_sun-69" d="M299.8,127.3c-0.8,0-1.5-0.7-1.5-1.5l0,0c0-0.4,0.2-0.8,0.5-1l16.3-16.3c0.6-0.5,1.6-0.5,2.1,0.2&#10;&#9;&#9;c0.5,0.6,0.5,1.4,0,1.9l-16.4,16.3C300.6,127.2,300.2,127.3,299.8,127.3z"/>
	<path class="st1_sun-69" d="M179.4,177.2h-23.2c-0.8-0.1-1.4-0.8-1.4-1.6c0.1-0.7,0.6-1.3,1.4-1.4h23.2c0.8,0,1.5,0.7,1.5,1.5c0,0,0,0,0,0&#10;&#9;&#9;C180.8,176.5,180.1,177.2,179.4,177.2L179.4,177.2z"/>
	<path class="st1_sun-69" d="M343.5,177.2h-23.2c-0.8-0.1-1.4-0.8-1.4-1.6c0.1-0.7,0.6-1.3,1.4-1.4h23.2c0.8,0,1.5,0.7,1.5,1.5c0,0,0,0,0,0&#10;&#9;&#9;c0,0.8-0.6,1.4-1.4,1.5C343.6,177.2,343.6,177.2,343.5,177.2z"/>
	<path class="st1_sun-69" d="M200,127.3c-0.4,0-0.8-0.2-1.1-0.5l-16.4-16.3c-0.5-0.6-0.5-1.6,0.2-2.1c0.6-0.5,1.4-0.5,1.9,0l16.3,16.3&#10;&#9;&#9;c0.6,0.6,0.6,1.5,0,2.1C200.8,127.2,200.4,127.3,200,127.3z"/>
	<path class="st1_sun-69" d="M316.1,243.5c-0.4,0-0.8-0.2-1.1-0.5l-16.4-16.4c-0.5-0.6-0.5-1.6,0.1-2.1c0,0,0,0,0,0c0.6-0.5,1.4-0.5,1.9,0&#10;&#9;&#9;l16.4,16.4c0.5,0.6,0.5,1.5,0,2.1C316.8,243.3,316.5,243.5,316.1,243.5z"/>
	<circle class="st1_sun-69" cx="228" cy="161.4" r="4.3"/>
	<path class="st1_sun-69" d="M228,167.2c-3.3,0-5.9-2.6-5.9-5.9c0-3.3,2.6-5.9,5.9-5.9c3.3,0,5.9,2.6,5.9,5.9c0,0,0,0,0,0l0,0&#10;&#9;&#9;C233.9,164.6,231.3,167.2,228,167.2C228,167.2,228,167.2,228,167.2z M228,158.6c-1.6,0-2.9,1.3-2.9,2.8c0,0,0,0,0,0&#10;&#9;&#9;c0,1.6,1.3,2.8,2.9,2.9c1.6,0,2.9-1.3,2.9-2.9c0,0,0,0,0,0l0,0c0-1.6-1.2-2.8-2.8-2.9C228.1,158.5,228,158.5,228,158.6z"/>
	<circle class="st1_sun-69" cx="271.7" cy="161.4" r="4.3"/>
	<path class="st1_sun-69" d="M271.7,167.2c-3.3,0-5.9-2.6-5.9-5.9c0-3.3,2.6-5.9,5.9-5.9s5.9,2.6,5.9,5.9c0,0,0,0,0,0l0,0&#10;&#9;&#9;c0,3.2-2.5,5.9-5.8,5.9C271.8,167.2,271.7,167.2,271.7,167.2z M271.7,158.6c-1.6,0-2.9,1.3-2.9,2.8c0,0,0,0,0,0&#10;&#9;&#9;c0,1.6,1.3,2.8,2.9,2.9c1.6,0,2.9-1.3,2.9-2.9c0,0,0,0,0,0l0,0c0-1.6-1.2-2.8-2.8-2.9C271.8,158.5,271.7,158.5,271.7,158.6z"/>
	<path class="st1_sun-69" d="M250.9,194.3c-1.7,0-3.5-0.2-5.2-0.6c-0.8-0.3-1.2-1.1-0.9-1.9c0.3-0.7,1-1.1,1.8-0.9c4,0.9,8.2,0.6,11.9-1&#10;&#9;&#9;c0.4-0.2,0.8-0.5,0.9-1c1-3.6-4.6-13.2-8.4-18.5c-0.4-0.6-0.3-1.5,0.4-2c0,0,0,0,0.1,0c0.6-0.4,1.5-0.2,1.9,0.3&#10;&#9;&#9;c1.1,1.5,10.6,14.8,8.8,21c-0.4,1.3-1.3,2.4-2.5,2.9C256.8,193.8,253.9,194.3,250.9,194.3z"/>
	<path class="st1_sun-69" d="M254.3,207.8c-15,0-27-10.1-27.2-10.2c-0.6-0.6-0.6-1.5-0.1-2.1c0,0,0,0,0,0c0.5-0.5,1.4-0.6,2-0.1&#10;&#9;&#9;c4.4,3.5,9.4,6.2,14.7,7.9c11.4,3.6,21.7,1.5,30.7-6.2c0.7-0.5,1.6-0.3,2.1,0.3c0.5,0.6,0.4,1.4-0.2,1.9&#10;&#9;&#9;C268.8,205.6,261.2,207.8,254.3,207.8z"/>
</g>
<g id="clouds_sun-69">
	<path class="st3_sun-69" d="M154.9,234.5c-10.5,2.9-133.8-0.3-136.2-1.4v-69.5c9.3-5.2,20.7-6.8,30.4-2.6c11,4.8,18.4,17.8,15.1,29.3&#10;&#9;&#9;c2.7-7.3,11.6-10.1,19.5-10c7.6,0.1,15.4,2.3,21.1,7.2s9.3,12.9,7.7,20.3C129.8,206.5,163.3,232.2,154.9,234.5z"/>
	<path class="st1_sun-69" d="M121.7,225.1c-0.6,0-1.1-0.4-1.3-1c-5.8-20-22-16-22.7-15.8c-0.7,0.1-1.5-0.3-1.7-1.1&#10;&#9;&#9;c-0.2-0.7,0.3-1.4,0.9-1.6c0.2-0.1,19.4-5,26,17.7c0.2,0.7-0.2,1.5-0.9,1.7l0,0C122,225.1,121.8,225.1,121.7,225.1z"/>
	<path class="st3_sun-69" d="M481.2,147.9c0,0-0.3,25.2-0.1,48.3c0.1,14.4,0.2,25.6,0.2,30.4c0.1,3.2-2.2,3-5.4,3&#10;&#9;&#9;c-27.8-0.2-91.5-0.4-114-0.8c5-12.3,18.7-20.4,31.9-19c0.7-13.4,12-23.7,25.4-23c0,0,0,0,0,0c4.2,0.2,8.3,1.5,11.9,3.8&#10;&#9;&#9;c-0.5-12,4.4-23.7,13.3-31.8C452.1,151.9,468.7,147.3,481.2,147.9z"/>
	<path class="st1_sun-69" d="M121.7,237.2c-14,0-28.9-0.2-38-0.4c-13.3-0.2-63.5-1.3-65.7-2.4c-0.5-0.3-0.9-0.8-0.9-1.4v-69.5&#10;&#9;&#9;c0-0.5,0.3-1.1,0.8-1.3c10.3-5.8,22.1-6.8,31.8-2.7c10,4.4,16.6,14.6,16.8,24.7c4.5-4.1,11.5-5.6,17.2-5.5&#10;&#9;&#9;c8.7,0.2,16.6,2.9,22.1,7.6c6,5.1,9.2,12.8,8.5,19.9c15.7,0.5,42.1,18.7,43.4,26.2c0.3,1.7-0.7,3.3-2.4,3.6c0,0,0,0,0,0&#10;&#9;&#9;C151.8,236.9,137.4,237.2,121.7,237.2z M20.2,231.8c13.2,1.4,125,3.8,134.2,1.2l0,0c0.1,0,0.1,0,0.2-0.1c0-0.3-0.2-1.3-2.3-3.6&#10;&#9;&#9;c-7.6-8.5-28.2-20.9-39.7-20.1c-0.8,0.1-1.6-0.6-1.6-1.4c0-0.1,0-0.3,0-0.4c1.4-6.4-1.5-14-7.2-18.8c-5-4.2-12.2-6.7-20.2-6.8&#10;&#9;&#9;c-6.8-0.1-15.5,2.1-18,9c-0.3,0.8-1.1,1.2-1.9,1c-0.8-0.3-1.2-1.1-1-1.9c3-10.4-3.4-22.8-14.2-27.5c-8.5-3.7-19-2.9-28.3,2.1&#10;&#9;&#9;L20.2,231.8z"/>
	<path class="st1_sun-69" d="M477.2,231.1h-0.8l-15-0.1c-32-0.2-80.4-0.4-99.6-0.8c-0.9,0-1.5-0.7-1.5-1.6c0-0.2,0-0.4,0.1-0.5&#10;&#9;&#9;c5.1-12.4,18.6-20.8,31.9-20c1.6-14.1,14.3-24.3,28.4-22.8c3,0.3,5.9,1.2,8.7,2.6c0.3-11.5,5.3-22.5,13.8-30.2&#10;&#9;&#9;c7.9-7,24.5-11.9,37.9-11.3c0.8,0,1.5,0.7,1.5,1.6c0,0.3-0.3,25.5-0.1,48.3c0,5.4,0.1,10.4,0.1,14.7c0,7.1,0.1,12.7,0.1,15.7&#10;&#9;&#9;c0.1,1.2-0.3,2.4-1.1,3.3C480.6,231,479.1,231.1,477.2,231.1z M364.3,227.2c20.5,0.3,66.4,0.6,97.2,0.7l15,0.1c1.3,0,2.8,0,3.1-0.3&#10;&#9;&#9;c0.2-0.3,0.3-0.7,0.2-1.1c-0.1-3-0.1-8.6-0.1-15.7c0-4.3-0.1-9.3-0.1-14.7c-0.2-19.6,0.1-41.1,0.1-46.8&#10;&#9;&#9;c-12.3-0.2-27.3,4.4-34.3,10.5c-8.6,7.8-13.3,19-12.8,30.6c0,0.6-0.3,1.1-0.8,1.4c-0.5,0.3-1.1,0.3-1.6-0.1&#10;&#9;&#9;c-3.3-2.2-7.1-3.4-11.1-3.6c-12.5-0.6-23.1,9-23.8,21.6c0,0.4-0.2,0.8-0.5,1.1c-0.3,0.3-0.7,0.4-1.2,0.4&#10;&#9;&#9;C381.9,210,369.7,216.8,364.3,227.2z"/>
	<path class="st1_sun-69" d="M410.8,210.5c-0.8,0-1.4-0.6-1.4-1.4c0-0.3,0.1-0.7,0.4-0.9c2.3-2.5,5.3-4.3,8.6-5.1c2.5-0.5,5.1-0.2,7.4,0.9&#10;&#9;&#9;c0-11.2,9-20.2,20.2-20.3c2,0,3.9,0.3,5.8,0.9c0.7,0.3,1.1,1.1,0.8,1.8c-0.2,0.7-0.9,1-1.6,0.9c-9.2-2.8-18.9,2.5-21.7,11.7&#10;&#9;&#9;c-0.7,2.4-0.9,5-0.6,7.5c0.1,0.8-0.4,1.4-1.1,1.6c-0.4,0.1-0.8-0.1-1.1-0.4c-2-1.8-4.8-2.5-7.5-1.9c-2.8,0.7-5.3,2.2-7.2,4.3&#10;&#9;&#9;C411.5,210.3,411.2,210.5,410.8,210.5z"/>
	<path class="st1_sun-69" d="M65.1,201.9h-0.3c-0.7-0.2-1.2-0.9-1-1.6c0,0,0,0,0,0c0.9-3.6-1.6-7.3-4.5-9.1s-6.5-2.4-11.3-2.1&#10;&#9;&#9;c-0.8,0-1.4-0.5-1.4-1.3s0.5-1.4,1.3-1.4l0,0c5.4-0.4,9.6,0.5,12.9,2.5c4.4,2.7,6.8,7.7,5.7,12.1C66.3,201.5,65.8,201.9,65.1,201.9&#10;&#9;&#9;z"/>
</g>
<g id="sea_sun-69">
	<rect x="18.7" y="353.2" class="st1_sun-69" width="462.6" height="84.1"/>
	<path class="st3_sun-69" d="M254.3,387h-44.9c-0.8-0.1-1.5-0.8-1.4-1.7c0.1-0.8,0.7-1.4,1.4-1.4h44.9c0.8-0.1,1.6,0.6,1.7,1.4&#10;&#9;&#9;c0.1,0.8-0.6,1.6-1.4,1.7C254.5,387,254.4,387,254.3,387z"/>
	<path class="st3_sun-69" d="M345,371.8H237.4c-0.8,0-1.5-0.7-1.5-1.5c0-0.8,0.7-1.5,1.5-1.5c0,0,0,0,0,0H345c0.8,0,1.5,0.7,1.5,1.5&#10;&#9;&#9;S345.8,371.8,345,371.8C345,371.8,345,371.8,345,371.8z"/>
	<path class="st3_sun-69" d="M433.5,371.8h-65.7c-0.8,0-1.5-0.7-1.5-1.5c0-0.8,0.7-1.5,1.5-1.5h65.7c0.8,0,1.5,0.7,1.5,1.5&#10;&#9;&#9;S434.4,371.8,433.5,371.8C433.5,371.8,433.5,371.8,433.5,371.8z"/>
	<path class="st3_sun-69" d="M413.8,387H308.3c-0.8,0.1-1.6-0.6-1.7-1.4c-0.1-0.8,0.6-1.6,1.4-1.7c0.1,0,0.2,0,0.2,0h105.5&#10;&#9;&#9;c0.8-0.1,1.6,0.6,1.7,1.4c0.1,0.8-0.6,1.6-1.4,1.7C414,387,413.9,387,413.8,387z"/>
</g>
<g id="land_sun-69">
	<path class="st4_sun-69" d="M186.4,381.3c0,16.1-31.3,29.1-69.9,29.1s-69.9-13-69.9-29.1s31.3-45.7,69.9-45.7S186.4,365.2,186.4,381.3z"/>
	<path class="st1_sun-69" d="M116.6,411.9c-40.1,0-71.4-13.4-71.4-30.6c0-17.8,33.4-47.2,71.4-47.2s71.4,29.4,71.4,47.2&#10;&#9;&#9;C188,398.5,156.6,411.9,116.6,411.9z M116.6,337.1c-22.9,0-40.2,10.4-48.5,16.5c-11.9,8.8-19.9,20-19.9,27.6&#10;&#9;&#9;c0,14.9,31.3,27.5,68.4,27.5s68.4-12.6,68.4-27.5c0-7.7-8-18.8-19.9-27.6C156.8,347.5,139.4,337.1,116.6,337.1L116.6,337.1z"/>
</g>
<g id="tree_sun-69">
	<path class="st5_sun-69" d="M129.2,337.6c0.8,4.4-1,8.8-4.7,11.3c-3.5,2.4-8,4-12.2,1.3c-2.6-1.7-4.3-4.5-4.6-7.6&#10;&#9;&#9;c-1.8-13.1-6.3-64.9,32.1-90.7C139.8,251.9,120.2,291,129.2,337.6z"/>
	<path class="st1_sun-69" d="M117,353.1c-2,0-3.9-0.6-5.5-1.7c-2.9-2-4.9-5.1-5.3-8.7c-1.8-13.7-1.5-27.6,1-41.1&#10;&#9;&#9;c4.4-22.7,15.1-39.9,31.8-51.1c0.6-0.4,1.3-0.3,1.9,0.1c0.5,0.5,0.7,1.2,0.4,1.8c-0.2,0.4-19.3,39.2-10.5,84.7l0,0&#10;&#9;&#9;c1,5-1.1,10-5.3,12.9C123,352,120.1,353,117,353.1z M136.1,256.5c-12,9.9-34,35.5-26.9,85.9c0.3,2.7,1.8,5,4,6.5&#10;&#9;&#9;c2.9,1.9,6.5,1.5,10.6-1.3c3.2-2.2,4.7-6,4-9.8C120.6,301.3,131.1,268.9,136.1,256.5L136.1,256.5z"/>
	<path class="st6_sun-69" d="M139.8,251.9c0,0,3.8-83.8-70.7-46.7l1.9,4.5l-6.5-1.9l-17.8,18.8l46.6-7.6l2.1-8.4l3.3,7.4&#10;&#9;&#9;C98.6,218.1,132.9,217.1,139.8,251.9z"/>
	<path class="st1_sun-69" d="M139.8,253.4c-0.7,0-1.3-0.5-1.5-1.2c-6.5-33.2-38.3-32.7-39.6-32.6c-0.6,0-1.2-0.3-1.4-0.9l-1.6-3.5l-1,4.2&#10;&#9;&#9;c-0.1,0.6-0.6,1-1.2,1.1l-46.6,7.6c-0.8,0.1-1.6-0.4-1.7-1.2c-0.1-0.5,0.1-0.9,0.4-1.3l17.8-18.8c0.4-0.4,1-0.6,1.5-0.4l3.5,1&#10;&#9;&#9;l-0.7-1.7c-0.3-0.7,0-1.6,0.7-1.9c22.4-11.1,40.1-12.6,52.8-4.4c9,5.9,15.3,16.8,18.3,31.7c1.4,6.8,2,13.8,1.8,20.8&#10;&#9;&#9;c0,0.8-0.6,1.4-1.4,1.4L139.8,253.4z M99.6,216.6c5.1,0.2,28.2,2.2,38.2,24.1c-1.2-11.9-5.2-30.2-18.3-38.8&#10;&#9;&#9;c-11.4-7.4-27.8-6.1-48.5,3.9l1.3,3.2c0.3,0.8-0.1,1.7-0.9,2c-0.3,0.1-0.6,0.1-0.9,0l-5.6-1.6l-14.1,14.9l41.2-6.7l1.8-7.4&#10;&#9;&#9;c0.2-0.8,1-1.3,1.8-1.1c0.5,0.1,0.8,0.4,1,0.9L99.6,216.6z"/>
	<path class="st6_sun-69" d="M139.4,252.3c0,0-38.9-56.7-71.1,20.1l4.4,2.2l-6.1,2.9l-1.2,25.8L95.7,267l-3.9-7.7l7.4,3.4&#10;&#9;&#9;C99.1,262.8,112.8,242.5,139.4,252.3z"/>
	<path class="st1_sun-69" d="M65.4,304.8c-0.2,0-0.4,0-0.5-0.1c-0.6-0.2-1-0.8-1-1.5l1.1-25.8c0-0.6,0.4-1.1,0.9-1.3l3.3-1.5l-1.6-0.8&#10;&#9;&#9;c-0.7-0.4-1-1.2-0.7-1.9c10.8-25.7,23.5-39.5,38-41c8.2-0.9,17.1,2.5,25.5,9.6c3.8,3.3,7.3,7,10.2,11.1c0.5,0.7,0.3,1.6-0.4,2.1&#10;&#9;&#9;c-0.4,0.3-0.9,0.4-1.4,0.2c-25.2-9.3-38.4,9.7-38.5,9.9c-0.4,0.6-1.2,0.8-1.9,0.5l-3.5-1.6l2,3.8c0.3,0.5,0.2,1.2-0.2,1.7&#10;&#9;&#9;l-30.2,36.2C66.3,304.6,65.8,304.7,65.4,304.8z M68,278.4l-0.9,20.5l26.8-32.1l-3.5-6.8c-0.4-0.7,0-1.6,0.7-2&#10;&#9;&#9;c0.4-0.2,0.9-0.2,1.3,0l6.3,2.9c3.1-3.9,15.6-16.9,36.5-11.5c-5.2-6-16.7-17-29.9-15.7c-13.1,1.4-24.8,14.1-35,37.9l3.1,1.6&#10;&#9;&#9;c0.7,0.4,1,1.3,0.7,2c-0.2,0.3-0.4,0.6-0.7,0.7L68,278.4z"/>
	<path class="st6_sun-69" d="M138.5,252.3c0,0,33.7-52.1,62.6,2.2l-3.1,1.9l4.7,1.7l2.6,18.9l-24.8-24.6l2.4-5.9l-5.2,3&#10;&#9;&#9;C177.8,249.6,157.6,234.3,138.5,252.3z"/>
	<path class="st1_sun-69" d="M205.4,278.6c-0.4,0-0.8-0.2-1.1-0.4l-24.8-24.6c-0.4-0.4-0.6-1.1-0.3-1.6l0.8-1.9l-1.5,0.9&#10;&#9;&#9;c-0.5,0.3-1.2,0.3-1.7-0.1c-0.8-0.6-19.4-14.3-37.3,2.6c-0.6,0.6-1.5,0.6-2.1,0c-0.5-0.5-0.6-1.3-0.2-1.9c0.6-1,15.8-24,35-23.1&#10;&#9;&#9;c11.3,0.5,21.4,9.1,30.2,25.5c0.4,0.7,0.2,1.6-0.5,2l-0.4,0.3l1.8,0.6c0.5,0.2,0.9,0.6,1,1.2l2.6,18.9c0.1,0.6-0.2,1.3-0.8,1.5&#10;&#9;&#9;C205.9,278.6,205.6,278.6,205.4,278.6z M182.4,252.1l20.9,20.8l-1.9-13.6l-3.9-1.4c-0.5-0.2-0.9-0.7-1-1.2&#10;&#9;&#9;c-0.1-0.6,0.2-1.1,0.7-1.4l1.9-1.2c-8.1-14.6-17.1-22.3-27-22.7c-10.5-0.5-19.9,7.3-25.9,13.7c14.6-7.1,28.1,0.6,31.6,2.8l4.4-2.6&#10;&#9;&#9;c0.6-0.3,1.2-0.3,1.7,0.2c0.5,0.4,0.7,1.1,0.4,1.7L182.4,252.1z"/>
	<path class="st6_sun-69" d="M138.5,252.7c0,0,47.8-17.4,34.2,42.6l-3.6-0.5l2.5,4.4l-10.4,16l-2.6-34.8l5.6-3l-5.9-1.1&#10;&#9;&#9;C158.3,276.3,158.8,258.2,138.5,252.7z"/>
	<path class="st1_sun-69" d="M161.2,316.7c-0.1,0-0.2,0-0.4,0c-0.6-0.2-1.1-0.7-1.1-1.3l-2.7-34.8c0-0.6,0.3-1.2,0.8-1.4l1.8-0.9l-1.7-0.3&#10;&#9;&#9;c-0.7-0.1-1.2-0.8-1.2-1.5c0-0.7,0.2-17-18.6-22.1c-0.8-0.2-1.3-1-1.1-1.8c0.1-0.5,0.5-0.9,0.9-1c0.8-0.3,19.5-6.9,30.8,3&#10;&#9;&#9;c8.2,7.2,10,21.1,5.4,41.4c-0.2,0.8-0.9,1.3-1.7,1.1l-0.5-0.1l0.9,1.7c0.3,0.5,0.3,1.1,0,1.6l-10.4,16&#10;&#9;&#9;C162.2,316.4,161.7,316.7,161.2,316.7z M160.1,281.2l2.2,29.4l7.5-11.5l-2-3.6c-0.4-0.7-0.2-1.6,0.6-2c0.3-0.2,0.6-0.2,1-0.2&#10;&#9;&#9;l2.2,0.3c4-18.4,2.4-30.8-4.8-37.1c-6.8-6-17.2-4.9-23.2-3.6c9.1,3.8,15.4,12.3,16.1,22.2l4.8,0.9c0.6,0.1,1.1,0.6,1.2,1.2&#10;&#9;&#9;c0.1,0.6-0.2,1.2-0.8,1.5L160.1,281.2z"/>
	<path class="st1_sun-69" d="M124.5,295.5c-2.9-0.1-5.8-0.7-8.5-1.6c-0.8-0.3-1.1-1.2-0.8-2c0.3-0.7,1.1-1,1.8-0.9c1.9,0.7,7.4,2.2,10.4,1&#10;&#9;&#9;c0.8-0.3,1.7,0,2,0.8c0,0,0,0,0,0c0.3,0.8,0,1.7-0.8,2C127.3,295.3,125.9,295.6,124.5,295.5z"/>
	<path class="st1_sun-69" d="M128.8,277c-2.5,0-5-0.6-7.3-1.6c-0.7-0.4-1-1.3-0.6-2.1c0.4-0.7,1.2-1,1.9-0.7c2.3,1.1,5,1.5,7.5,1.2&#10;&#9;&#9;c0.8-0.1,1.6,0.5,1.7,1.3c0.1,0.8-0.5,1.6-1.3,1.7c0,0,0,0,0,0C130.1,277,129.4,277,128.8,277z"/>
	<path class="st1_sun-69" d="M123.7,317.1c-3.5,0-6.9-0.6-10.2-1.8c-0.8-0.2-1.3-1-1.1-1.9c0.2-0.8,1-1.3,1.9-1.1c0.1,0,0.2,0,0.2,0.1&#10;&#9;&#9;c3.8,1.4,7.9,1.9,12,1.5c0.8-0.2,1.6,0.3,1.8,1.1s-0.3,1.6-1.1,1.8c-0.1,0-0.2,0-0.4,0C125.8,317,124.8,317.1,123.7,317.1z"/>
	<path class="st1_sun-69" d="M119.3,336.1c-1.8,0-3.7-0.2-5.4-0.6c-0.8-0.2-1.3-1-1.1-1.9c0.2-0.8,1-1.3,1.9-1.1l0,0c4,1,8.3,0.7,12.2-0.8&#10;&#9;&#9;c0.8-0.3,1.7,0.1,2,0.9s-0.1,1.7-0.9,2C125.2,335.6,122.3,336.1,119.3,336.1z"/>
</g>
</svg>